<?xml version="1.0" encoding="UTF-8" standalone="no"?>
<svg xmlns:dc="http://purl.org/dc/elements/1.1/" xmlns:cc="http://creativecommons.org/ns#" xmlns:rdf="http://www.w3.org/1999/02/22-rdf-syntax-ns#" xmlns:svg="http://www.w3.org/2000/svg" xmlns="http://www.w3.org/2000/svg" viewBox="0 0 699.64001 216" height="216" width="699.64001" xml:space="preserve" id="svg2" version="1.1"><metadata id="metadata8"><rdf:RDF><cc:Work rdf:about=""><dc:format>image/svg+xml</dc:format><dc:type rdf:resource="http://purl.org/dc/dcmitype/StillImage"/></cc:Work></rdf:RDF></metadata><defs id="defs6"/><g transform="matrix(1.3333333,0,0,-1.3333333,0,216)" id="g10"><g transform="scale(0.1)" id="g12"><path id="path14" style="fill:#435364;fill-opacity:1;fill-rule:nonzero;stroke:none" d="m 1577.55,451.68 c 84.63,0 140.17,75.371 140.17,163.968 0,89.911 -62.14,162.645 -150.74,162.645 -68.76,0 -115.04,-30.422 -115.04,-30.422 v -216.84 c 6.6,-14.562 44.95,-79.351 125.61,-79.351 z m -251.22,799.99 c 0,13.23 11.89,25.12 25.12,25.12 h 76.7 c 13.2,0 25.12,-11.89 25.12,-25.12 V 864.242 c 11.89,3.973 59.5,29.094 126.94,29.094 146.77,0 260.49,-122.977 260.49,-277.688 0,-152.078 -107.12,-277.687 -247.27,-277.687 -104.47,0 -167.94,74.059 -167.94,74.059 l -10.57,-38.348 c -3.97,-13.223 -11.9,-22.481 -23.81,-22.481 h -39.66 c -13.23,0 -25.12,11.899 -25.12,25.118 v 875.361"/><path id="path16" style="fill:none;stroke:#435364;stroke-width:4.72201014;stroke-linecap:butt;stroke-linejoin:miter;stroke-miterlimit:10;stroke-dasharray:none;stroke-opacity:1" d="m 1577.55,451.68 c 84.63,0 140.17,75.371 140.17,163.968 0,89.911 -62.14,162.645 -150.74,162.645 -68.76,0 -115.04,-30.422 -115.04,-30.422 v -216.84 c 6.6,-14.562 44.95,-79.351 125.61,-79.351 z m -251.22,799.99 c 0,13.23 11.89,25.12 25.12,25.12 h 76.7 c 13.2,0 25.12,-11.89 25.12,-25.12 V 864.242 c 11.89,3.973 59.5,29.094 126.94,29.094 146.77,0 260.49,-122.977 260.49,-277.688 0,-152.078 -107.12,-277.687 -247.27,-277.687 -104.47,0 -167.94,74.059 -167.94,74.059 l -10.57,-38.348 c -3.97,-13.223 -11.9,-22.481 -23.81,-22.481 h -39.66 c -13.23,0 -25.12,11.899 -25.12,25.118 z"/><path id="path18" style="fill:#435364;fill-opacity:1;fill-rule:nonzero;stroke:none" d="m 1947.71,854.984 c 0,13.231 11.9,25.121 25.12,25.121 h 75.38 c 13.22,0 25.12,-11.89 25.12,-25.121 V 376.309 c 0,-13.219 -11.9,-25.118 -25.12,-25.118 h -75.38 c -13.22,0 -25.12,11.899 -25.12,25.118 z m -14.55,317.356 c 0,43.64 33.05,78.02 75.37,78.02 43.64,0 78.02,-34.38 78.02,-78.02 0,-42.32 -34.38,-76.7 -78.02,-76.7 -42.32,0 -75.37,34.38 -75.37,76.7"/><path id="path20" style="fill:none;stroke:#435364;stroke-width:4.72201014;stroke-linecap:butt;stroke-linejoin:miter;stroke-miterlimit:10;stroke-dasharray:none;stroke-opacity:1" d="m 1947.71,854.984 c 0,13.231 11.9,25.121 25.12,25.121 h 75.38 c 13.22,0 25.12,-11.89 25.12,-25.121 V 376.309 c 0,-13.219 -11.9,-25.118 -25.12,-25.118 h -75.38 c -13.22,0 -25.12,11.899 -25.12,25.118 z m -14.55,317.356 c 0,43.64 33.05,78.02 75.37,78.02 43.64,0 78.02,-34.38 78.02,-78.02 0,-42.32 -34.38,-76.7 -78.02,-76.7 -42.32,0 -75.37,34.38 -75.37,76.7 z"/><path id="path22" style="fill:#435364;fill-opacity:1;fill-rule:nonzero;stroke:none" d="m 2218.75,1251.67 c 0,13.23 11.9,25.12 25.12,25.12 h 75.37 c 13.22,0 25.12,-11.89 25.12,-25.12 V 376.309 c 0,-13.219 -11.9,-25.118 -25.12,-25.118 h -75.37 c -13.22,0 -25.12,11.899 -25.12,25.118 v 875.361"/><path id="path24" style="fill:none;stroke:#435364;stroke-width:4.72201014;stroke-linecap:butt;stroke-linejoin:miter;stroke-miterlimit:10;stroke-dasharray:none;stroke-opacity:1" d="m 2218.75,1251.67 c 0,13.23 11.9,25.12 25.12,25.12 h 75.37 c 13.22,0 25.12,-11.89 25.12,-25.12 V 376.309 c 0,-13.219 -11.9,-25.118 -25.12,-25.118 h -75.37 c -13.22,0 -25.12,11.899 -25.12,25.118 z"/><path id="path26" style="fill:#435364;fill-opacity:1;fill-rule:nonzero;stroke:none" d="m 2489.77,1251.67 c 0,13.23 11.89,25.12 25.12,25.12 h 75.37 c 13.22,0 25.12,-11.89 25.12,-25.12 V 376.309 c 0,-13.219 -11.9,-25.118 -25.12,-25.118 h -75.37 c -13.23,0 -25.12,11.899 -25.12,25.118 v 875.361"/><path id="path28" style="fill:none;stroke:#435364;stroke-width:4.72201014;stroke-linecap:butt;stroke-linejoin:miter;stroke-miterlimit:10;stroke-dasharray:none;stroke-opacity:1" d="m 2489.77,1251.67 c 0,13.23 11.89,25.12 25.12,25.12 h 75.37 c 13.22,0 25.12,-11.89 25.12,-25.12 V 376.309 c 0,-13.219 -11.9,-25.118 -25.12,-25.118 h -75.37 c -13.23,0 -25.12,11.899 -25.12,25.118 z"/><path id="path30" style="fill:#435364;fill-opacity:1;fill-rule:nonzero;stroke:none" d="m 2787.58,770.359 h -62.15 c -14.55,0 -25.12,11.899 -25.12,25.121 v 59.504 c 0,14.559 10.57,25.121 25.12,25.121 h 62.15 v 163.965 c 0,157.36 107.11,245.95 238.02,245.95 88.59,0 170.56,-42.31 198.34,-59.51 10.56,-6.6 13.22,-22.46 6.6,-33.05 l -33.05,-59.51 c -7.94,-15.86 -19.83,-14.53 -34.38,-6.6 -11.9,6.6 -79.34,42.32 -137.51,42.32 -54.21,0 -109.76,-38.35 -109.76,-129.6 V 880.105 H 3217 c 13.24,0 25.13,-11.89 25.13,-25.121 V 376.309 c 0,-13.219 -11.89,-25.118 -25.13,-25.118 h -75.36 c -13.23,0 -25.12,11.899 -25.12,25.118 v 394.05 h -200.68 v -394.05 c 0,-19.829 -21.15,-25.118 -37.03,-25.118 h -66.11 c -13.23,0 -25.12,11.899 -25.12,25.118 v 394.05"/><path id="path32" style="fill:none;stroke:#435364;stroke-width:4.72201014;stroke-linecap:butt;stroke-linejoin:miter;stroke-miterlimit:10;stroke-dasharray:none;stroke-opacity:1" d="m 2787.58,770.359 h -62.15 c -14.55,0 -25.12,11.899 -25.12,25.121 v 59.504 c 0,14.559 10.57,25.121 25.12,25.121 h 62.15 v 163.965 c 0,157.36 107.11,245.95 238.02,245.95 88.59,0 170.56,-42.31 198.34,-59.51 10.56,-6.6 13.22,-22.46 6.6,-33.05 l -33.05,-59.51 c -7.94,-15.86 -19.83,-14.53 -34.38,-6.6 -11.9,6.6 -79.34,42.32 -137.51,42.32 -54.21,0 -109.76,-38.35 -109.76,-129.6 V 880.105 H 3217 c 13.24,0 25.13,-11.89 25.13,-25.121 V 376.309 c 0,-13.219 -11.89,-25.118 -25.13,-25.118 h -75.36 c -13.23,0 -25.12,11.899 -25.12,25.118 v 394.05 h -200.68 v -394.05 c 0,-19.829 -21.15,-25.118 -37.03,-25.118 h -66.11 c -13.23,0 -25.12,11.899 -25.12,25.118 z"/><path id="path34" style="fill:#435364;fill-opacity:1;fill-rule:nonzero;stroke:none" d="m 3511.54,620.938 -166.6,223.46 c -13.23,17.188 -3.96,35.707 15.86,35.707 h 85.96 c 11.89,0 23.79,-3.96 31.73,-14.546 l 105.78,-152.063 h 1.33 l 108.42,152.063 c 6.62,9.254 17.19,14.546 30.42,14.546 h 87.26 c 22.48,0 29.09,-17.191 15.88,-34.378 L 3660.97,622.266 3828.89,385.57 c 11.9,-17.191 5.29,-34.379 -15.86,-34.379 h -83.3 c -10.59,0 -21.15,6.598 -27.78,15.86 l -116.35,163.98 h -1.33 l -119.01,-169.25 c -3.97,-5.301 -10.57,-10.59 -21.16,-10.59 h -88.59 c -22.48,0 -27.76,17.188 -15.86,34.379 l 171.89,235.368"/><path id="path36" style="fill:none;stroke:#435364;stroke-width:4.72201014;stroke-linecap:butt;stroke-linejoin:miter;stroke-miterlimit:10;stroke-dasharray:none;stroke-opacity:1" d="m 3511.54,620.938 -166.6,223.46 c -13.23,17.188 -3.96,35.707 15.86,35.707 h 85.96 c 11.89,0 23.79,-3.96 31.73,-14.546 l 105.78,-152.063 h 1.33 l 108.42,152.063 c 6.62,9.254 17.19,14.546 30.42,14.546 h 87.26 c 22.48,0 29.09,-17.191 15.88,-34.378 L 3660.97,622.266 3828.89,385.57 c 11.9,-17.191 5.29,-34.379 -15.86,-34.379 h -83.3 c -10.59,0 -21.15,6.598 -27.78,15.86 l -116.35,163.98 h -1.33 l -119.01,-169.25 c -3.97,-5.301 -10.57,-10.59 -21.16,-10.59 h -88.59 c -22.48,0 -27.76,17.188 -15.86,34.379 z"/><path id="path38" style="fill:#435364;fill-opacity:1;fill-rule:nonzero;stroke:none" d="m 4257.27,673.84 c -3.97,63.465 -56.87,117.676 -121.65,117.676 -71.42,0 -126.95,-51.575 -134.9,-117.676 z m -120.34,219.496 c 137.52,0 243.32,-103.148 243.32,-244.625 0,-9.258 -1.33,-26.445 -2.66,-35.711 -1.32,-13.219 -11.9,-22.48 -23.8,-22.48 h -359.67 c 3.97,-71.411 66.12,-141.481 152.06,-141.481 47.61,0 91.25,21.16 117.69,38.352 15.88,9.257 25.13,14.531 35.71,1.328 l 37.02,-50.258 c 9.26,-10.582 13.23,-21.172 -2.64,-34.371 -38.34,-33.07 -107.11,-66.129 -195.71,-66.129 -159.99,0 -265.78,125.609 -265.78,277.687 0,149.418 105.79,277.688 264.46,277.688"/><path id="path40" style="fill:none;stroke:#435364;stroke-width:4.72201014;stroke-linecap:butt;stroke-linejoin:miter;stroke-miterlimit:10;stroke-dasharray:none;stroke-opacity:1" d="m 4257.27,673.84 c -3.97,63.465 -56.87,117.676 -121.65,117.676 -71.42,0 -126.95,-51.575 -134.9,-117.676 z m -120.34,219.496 c 137.52,0 243.32,-103.148 243.32,-244.625 0,-9.258 -1.33,-26.445 -2.66,-35.711 -1.32,-13.219 -11.9,-22.48 -23.8,-22.48 h -359.67 c 3.97,-71.411 66.12,-141.481 152.06,-141.481 47.61,0 91.25,21.16 117.69,38.352 15.88,9.257 25.13,14.531 35.71,1.328 l 37.02,-50.258 c 9.26,-10.582 13.23,-21.172 -2.64,-34.371 -38.34,-33.07 -107.11,-66.129 -195.71,-66.129 -159.99,0 -265.78,125.609 -265.78,277.687 0,149.418 105.79,277.688 264.46,277.688 z"/><path id="path42" style="fill:#435364;fill-opacity:1;fill-rule:nonzero;stroke:none" d="m 4480.66,854.984 c 0,13.231 11.89,25.121 25.12,25.121 h 38.35 c 9.24,0 19.83,-7.925 22.46,-18.519 l 14.55,-44.949 c 9.27,13.226 58.19,76.699 154.71,76.699 50.27,0 111.08,-13.231 96.54,-48.938 l -31.74,-64.781 c -6.61,-14.551 -19.83,-17.183 -31.73,-11.89 -7.95,3.961 -27.78,9.238 -44.97,9.238 -76.69,0 -113.71,-55.539 -119.01,-64.785 V 376.309 c 0,-22.477 -14.53,-25.118 -35.69,-25.118 h -63.47 c -13.23,0 -25.12,11.899 -25.12,25.118 v 478.675"/><path id="path44" style="fill:none;stroke:#435364;stroke-width:4.72201014;stroke-linecap:butt;stroke-linejoin:miter;stroke-miterlimit:10;stroke-dasharray:none;stroke-opacity:1" d="m 4480.66,854.984 c 0,13.231 11.89,25.121 25.12,25.121 h 38.35 c 9.24,0 19.83,-7.925 22.46,-18.519 l 14.55,-44.949 c 9.27,13.226 58.19,76.699 154.71,76.699 50.27,0 111.08,-13.231 96.54,-48.938 l -31.74,-64.781 c -6.61,-14.551 -19.83,-17.183 -31.73,-11.89 -7.95,3.961 -27.78,9.238 -44.97,9.238 -76.69,0 -113.71,-55.539 -119.01,-64.785 V 376.309 c 0,-22.477 -14.53,-25.118 -35.69,-25.118 h -63.47 c -13.23,0 -25.12,11.899 -25.12,25.118 z"/><path id="path46" style="fill:#435364;fill-opacity:1;fill-rule:nonzero;stroke:none" d="m 4866.72,419.949 27.77,51.571 c 5.29,10.57 19.84,14.539 33.06,6.601 0,0 58.17,-34.371 122.98,-34.371 39.66,0 64.77,15.859 64.77,44.969 0,35.679 -29.08,52.883 -101.79,85.941 -81.99,35.699 -150.75,85.945 -150.75,173.211 0,66.129 54.2,145.465 181.15,145.465 74.05,0 129.59,-23.793 156.02,-40.988 11.92,-7.95 18.52,-25.121 10.59,-38.348 l -23.79,-44.969 c -6.62,-11.902 -23.82,-15.867 -34.38,-10.574 0,0 -58.2,27.766 -108.44,27.766 -44.95,0 -59.51,-19.828 -59.51,-39.66 0,-34.383 33.07,-48.934 84.63,-71.418 96.54,-42.313 175.87,-83.293 175.87,-182.454 0,-82 -78.02,-154.73 -195.7,-154.73 -88.59,0 -146.77,31.75 -174.55,54.219 -7.93,5.289 -13.22,17.191 -7.93,27.769"/><path id="path48" style="fill:none;stroke:#435364;stroke-width:4.72201014;stroke-linecap:butt;stroke-linejoin:miter;stroke-miterlimit:10;stroke-dasharray:none;stroke-opacity:1" d="m 4866.72,419.949 27.77,51.571 c 5.29,10.57 19.84,14.539 33.06,6.601 0,0 58.17,-34.371 122.98,-34.371 39.66,0 64.77,15.859 64.77,44.969 0,35.679 -29.08,52.883 -101.79,85.941 -81.99,35.699 -150.75,85.945 -150.75,173.211 0,66.129 54.2,145.465 181.15,145.465 74.05,0 129.59,-23.793 156.02,-40.988 11.92,-7.95 18.52,-25.121 10.59,-38.348 l -23.79,-44.969 c -6.62,-11.902 -23.82,-15.867 -34.38,-10.574 0,0 -58.2,27.766 -108.44,27.766 -44.95,0 -59.51,-19.828 -59.51,-39.66 0,-34.383 33.07,-48.934 84.63,-71.418 96.54,-42.313 175.87,-83.293 175.87,-182.454 0,-82 -78.02,-154.73 -195.7,-154.73 -88.59,0 -146.77,31.75 -174.55,54.219 -7.93,5.289 -13.22,17.191 -7.93,27.769 z"/><path id="path50" style="fill:#ff5f1a;fill-opacity:1;fill-rule:nonzero;stroke:none" d="m 625.465,1343.73 -163.797,-163.7 -325.309,0.09 v 303.52 h 431.184 c 50.809,0 70.801,-38.73 75.715,-50.6 4.894,-11.89 18.156,-53.41 -17.793,-89.31 m 325.512,-298.67 c -34.403,83.17 -111.661,134.83 -201.653,134.85 l -94.816,0.05 67.355,67.28 c 63.641,63.64 81.789,154.85 47.383,237.99 C 734.813,1568.36 657.512,1620 567.543,1620 H 68.1797 C 30.582,1620 0,1589.42 0,1551.84 v -439.87 c 0,-37.58 30.582,-68.16 68.1563,-68.16 l 257.1057,-0.12 -0.215,-0.19 h 192.91 l 0.145,0.13 231.175,-0.08 c 50.786,-0.03 70.778,-38.75 75.696,-50.62 4.918,-11.867 18.148,-53.387 -17.774,-89.285 L 136.359,232.75 V 662.168 L 429.215,954.836 H 236.305 L 19.9961,738.66 C 7.30469,725.977 0,708.418 0,690.43 V 68.1484 C 0,40.4805 16.5195,15.7891 42.0938,5.17969 50.3867,1.75 59.1523,0 68.1563,0 86.3789,0 103.531,7.08984 116.395,19.9688 l 787.25,787.2582 c 63.597,63.57 81.75,154.722 47.332,237.833"/></g></g></svg>