<svg width="18" height="18" viewBox="0 0 18 18" fill="none" xmlns="http://www.w3.org/2000/svg">
<path fill-rule="evenodd" clip-rule="evenodd" d="M5.75226 1.49951H12.2548C14.7973 1.49951 16.4998 3.28451 16.4998 5.93951V12.0678C16.4998 14.7153 14.7973 16.4995 12.2548 16.4995H5.75226C3.20976 16.4995 1.49976 14.7153 1.49976 12.0678V5.93951C1.49976 3.28451 3.20976 1.49951 5.75226 1.49951ZM8.99232 6.79528C8.63982 6.79528 8.34732 6.50203 8.34732 6.14278C8.34732 5.77527 8.63982 5.48277 9.00732 5.48277C9.36732 5.48277 9.65982 5.77527 9.65982 6.14278C9.65982 6.50203 9.36732 6.79528 8.99232 6.79528ZM9.65219 11.8353C9.65219 12.1953 9.35969 12.4878 8.99219 12.4878C8.63219 12.4878 8.33969 12.1953 8.33969 11.8353V8.52025C8.33969 8.1595 8.63219 7.86025 8.99219 7.86025C9.35969 7.86025 9.65219 8.1595 9.65219 8.52025V11.8353Z" fill="#A6ABC8"/>
</svg>
