<svg width="18" height="18" viewBox="0 0 18 18" fill="none" xmlns="http://www.w3.org/2000/svg">
<path fill-rule="evenodd" clip-rule="evenodd" d="M15.3015 10.185C15.5698 10.3275 15.7767 10.5525 15.9224 10.7775C16.2059 11.2425 16.183 11.8125 15.907 12.315L15.3705 13.215C15.0869 13.695 14.558 13.995 14.0138 13.995C13.7456 13.995 13.4467 13.92 13.2014 13.77C13.0021 13.6425 12.7722 13.5975 12.5269 13.5975C11.7681 13.5975 11.1319 14.22 11.1089 14.9625C11.1089 15.825 10.4038 16.5 9.52235 16.5H8.47995C7.59085 16.5 6.8857 15.825 6.8857 14.9625C6.87037 14.22 6.2342 13.5975 5.47539 13.5975C5.22246 13.5975 4.99252 13.6425 4.8009 13.77C4.55563 13.92 4.24905 13.995 3.98845 13.995C3.43659 13.995 2.90773 13.695 2.62413 13.215L2.09527 12.315C1.81168 11.8275 1.79635 11.2425 2.07994 10.7775C2.20258 10.5525 2.43252 10.3275 2.69312 10.185C2.90773 10.08 3.04569 9.9075 3.17599 9.705C3.55922 9.06 3.32928 8.2125 2.67779 7.83C1.91898 7.4025 1.67371 6.45 2.1106 5.7075L2.62413 4.8225C3.06869 4.08 4.01911 3.8175 4.78557 4.2525C5.4524 4.6125 6.31851 4.3725 6.70941 3.735C6.83204 3.525 6.90102 3.3 6.8857 3.075C6.87037 2.7825 6.95468 2.505 7.10031 2.28C7.3839 1.815 7.89743 1.515 8.45695 1.5H9.53767C10.1049 1.5 10.6184 1.815 10.902 2.28C11.04 2.505 11.1319 2.7825 11.1089 3.075C11.0936 3.3 11.1626 3.525 11.2852 3.735C11.6761 4.3725 12.5422 4.6125 13.2167 4.2525C13.9755 3.8175 14.9336 4.08 15.3705 4.8225L15.884 5.7075C16.3286 6.45 16.0833 7.4025 15.3168 7.83C14.6653 8.2125 14.4354 9.06 14.8263 9.705C14.9489 9.9075 15.0869 10.08 15.3015 10.185ZM6.83196 9.0075C6.83196 10.185 7.80538 11.1225 9.00873 11.1225C10.2121 11.1225 11.1625 10.185 11.1625 9.0075C11.1625 7.83 10.2121 6.885 9.00873 6.885C7.80538 6.885 6.83196 7.83 6.83196 9.0075Z" fill="#A6ABC8"/>
</svg>
